<svg width="119" height="119" viewBox="0 0 119 119" fill="none" xmlns="http://www.w3.org/2000/svg">
<path d="M59.5 0C47.732 0 36.2283 3.48961 26.4436 10.0276C16.6589 16.5655 9.03261 25.8581 4.52919 36.7303C0.0257802 47.6025 -1.15252 59.566 1.1433 71.1079C3.43912 82.6497 9.10595 93.2516 17.4272 101.573C25.7484 109.894 36.3503 115.561 47.8921 117.857C59.434 120.153 71.3975 118.974 82.2697 114.471C93.1419 109.967 102.435 102.341 108.972 92.5564C115.51 82.7717 119 71.268 119 59.5C119 43.7196 112.731 28.5856 101.573 17.4271C90.4144 6.26873 75.2804 0 59.5 0ZM98.3609 39.5303L49.4966 88.3575L20.6391 59.5C19.6528 58.5137 19.0987 57.176 19.0987 55.7812C19.0987 54.3864 19.6528 53.0488 20.6391 52.0625C21.6254 51.0762 22.963 50.5221 24.3578 50.5221C25.7526 50.5221 27.0903 51.0762 28.0766 52.0625L49.571 73.5569L90.9978 32.1672C91.4862 31.6788 92.0659 31.2914 92.704 31.0271C93.3421 30.7629 94.0259 30.6268 94.7166 30.6268C95.4072 30.6268 96.0911 30.7629 96.7291 31.0271C97.3672 31.2914 97.947 31.6788 98.4353 32.1672C98.9237 32.6555 99.3111 33.2353 99.5753 33.8734C99.8396 34.5114 99.9757 35.1953 99.9757 35.8859C99.9757 36.5766 99.8396 37.2604 99.5753 37.8985C99.3111 38.5366 98.9237 39.1163 98.4353 39.6047L98.3609 39.5303Z" fill="#603FEF"/>
</svg>
